<?xml version="1.0" encoding="UTF-8"?>
<svg id="Layer_2" data-name="Layer 2" xmlns="http://www.w3.org/2000/svg" viewBox="0 0 127.18 21.61">
  <defs>
    <style>
      .cls-1 {
        fill: #b1222b;
      }

      .cls-2 {
        fill: #1d1d1b;
      }

      .cls-3 {
        fill: #fff;
      }
    </style>
  </defs>
  <g id="Layer_1-2" data-name="Layer 1">
    <g>
      <g>
        <g>
          <path class="cls-1" d="M73.66,20.68c-.79,0-1.54-.23-2.16-.66-.93-.65-1.49-1.95-1.25-2.91.17-.65.67-1.06,1.42-1.14.16-.02.31-.03.44-.03,1.38,0,1.58.89,1.75,1.61.09.38.17.74.39,1.01.08.1.2.14.35.14.47,0,1.14-.45,1.3-.88.94-2.48-2.06-3.87-4.24-4.88-.16-.08-.32-.15-.47-.22l-5.09,7.63c-.05.07-.12.11-.21.11h-1.88c-.09,0-.18-.05-.22-.13-.04-.08-.04-.18.01-.26l5.61-8.35c-1.72-.8-3.8-2.19-4.77-3.86-.49-.86-.77-1.59-.84-2.22-.21-1.85,1.11-3.7,2.44-4.64.71-.5,1.52-.76,2.42-.76.38,0,.77.05,1.17.14.15.04.29.08.42.13,1.07.4,2.17,1.42,2.22,2.77.02.47-.15.9-.49,1.25-.4.41-.99.66-1.59.66-.65,0-1.19-.29-1.5-.8-.14-.24-.23-.55-.32-.87-.21-.76-.39-1.25-.91-1.25-.77.05-1.22,1.07-1.22,1.78,0,1.97,2.47,3.12,4.28,3.97.29.13.56.26.81.38l4.96-7.75c.05-.07.12-.11.21-.12,0,0,1.81-.03,1.81-.03.09,0,.17.05.22.13.04.08.04.18,0,.26l-5.36,8.28c2.98,1.75,6.13,4.27,4.89,8.25-.57,1.84-2.59,3.27-4.59,3.27Z"/>
          <path class="cls-3" d="M68.67.5c.37,0,.74.05,1.11.13.14.03.27.07.39.12,1.06.4,2.01,1.36,2.06,2.54.03,1-.93,1.65-1.83,1.65-.51,0-1-.21-1.29-.68-.41-.68-.37-2.25-1.44-2.25-.02,0-.05,0-.07,0-.9.06-1.39,1.24-1.4,2.03,0,2.54,3.58,3.72,5.42,4.68l5.08-7.94,1.81-.03-5.5,8.5c2.98,1.72,6.23,4.15,5,8.09-.55,1.79-2.49,3.1-4.36,3.1-.71,0-1.41-.19-2.02-.61-1.32-.91-1.87-3.38.06-3.6.15-.02.29-.02.41-.02,1.82,0,1.21,1.64,1.95,2.53.14.16.33.23.54.23.59,0,1.34-.53,1.54-1.05,1.13-2.99-2.97-4.51-5.03-5.5l-5.21,7.81h-1.88s5.77-8.59,5.77-8.59c-1.76-.77-3.94-2.17-4.92-3.88-.36-.63-.73-1.4-.81-2.12-.19-1.69,1.01-3.47,2.33-4.41.69-.49,1.47-.71,2.28-.71M78.51.74h0M68.67,0h0c-.95,0-1.82.27-2.57.8-1.38.98-2.77,2.93-2.54,4.87.08.67.36,1.43.88,2.32,1.11,1.93,3.4,3.25,4.62,3.84l-5.45,8.11c-.1.15-.11.35-.03.51.09.16.26.26.44.26h1.88c.17,0,.32-.09.42-.23l4.97-7.45c.09.04.18.08.27.13,2.62,1.21,4.9,2.47,4.11,4.56-.13.34-.7.72-1.07.72-.11,0-.15-.04-.16-.05-.18-.22-.26-.55-.34-.91-.17-.72-.42-1.81-1.99-1.81-.14,0-.3,0-.47.03-.85.09-1.45.58-1.64,1.33-.27,1.05.34,2.48,1.34,3.18.66.46,1.46.7,2.3.7,2.15,0,4.22-1.48,4.83-3.45,1.26-4.05-1.78-6.61-4.78-8.41l5.2-8.03c.06-.08.1-.19.1-.3,0-.28-.22-.5-.5-.5h-.01l-1.81.03c-.17,0-.32.09-.41.23l-4.84,7.56c-.19-.09-.4-.19-.61-.29-1.84-.86-4.13-1.93-4.13-3.74,0-.58.37-1.49.93-1.53h0c.35,0,.49.32.71,1.07.1.34.19.67.35.93.35.59.98.93,1.71.93.66,0,1.32-.28,1.77-.74.39-.4.58-.9.56-1.43-.05-1.47-1.23-2.56-2.38-2.99-.14-.05-.29-.1-.45-.14-.42-.1-.83-.14-1.23-.14h0Z"/>
        </g>
        <g>
          <path class="cls-1" d="M65.34,14.87c-.97,0-1.77-.79-1.77-1.77s.79-1.77,1.77-1.77,1.77.79,1.77,1.77-.79,1.77-1.77,1.77Z"/>
          <path class="cls-3" d="M65.34,11.58c.84,0,1.52.68,1.52,1.52s-.68,1.52-1.52,1.52-1.52-.68-1.52-1.52.68-1.52,1.52-1.52M65.34,11.08c-1.11,0-2.02.91-2.02,2.02s.9,2.02,2.02,2.02,2.02-.9,2.02-2.02-.9-2.02-2.02-2.02h0Z"/>
        </g>
        <g>
          <path class="cls-1" d="M77.55,9.47c-.97,0-1.77-.79-1.77-1.77s.79-1.77,1.77-1.77,1.77.79,1.77,1.77-.79,1.77-1.77,1.77Z"/>
          <path class="cls-3" d="M77.55,6.18c.84,0,1.52.68,1.52,1.52s-.68,1.52-1.52,1.52-1.52-.68-1.52-1.52.68-1.52,1.52-1.52M77.55,5.68c-1.11,0-2.02.9-2.02,2.02s.9,2.02,2.02,2.02,2.02-.91,2.02-2.02-.9-2.02-2.02-2.02h0Z"/>
        </g>
      </g>
      <g>
        <g>
          <path class="cls-2" d="M34.4,20.32c-.69,0-1.27-.12-1.73-.34-.47-.23-.84-.55-1.09-.95-.25-.39-.41-.84-.48-1.34-.06-.48-.06-.99,0-1.52l.91-6.4h2.96l-.73,5.25c-.04.27-.07.56-.09.89-.02.31,0,.6.07.86.06.25.18.45.36.61.16.15.43.23.8.23s.69-.06.96-.18c.27-.12.5-.29.68-.49.19-.21.35-.45.47-.73.12-.28.2-.57.24-.87l.79-5.57h2.96l-1.44,10.3h-2.83l.13-.98c-.22.23-.48.45-.77.65-.57.39-1.3.58-2.16.58Z"/>
          <path class="cls-3" d="M41.18,10.02l-1.37,9.8h-2.33l.2-1.57h-.04c-.29.49-.69.92-1.23,1.28-.53.36-1.2.54-2.02.54-.65,0-1.19-.11-1.62-.32-.43-.21-.76-.5-.99-.86-.23-.36-.38-.77-.44-1.24-.06-.46-.06-.95.01-1.45l.88-6.19h2.45l-.69,4.96c-.04.27-.07.58-.09.91-.02.33,0,.65.08.94.07.29.22.54.43.74.21.2.53.3.97.3.41,0,.76-.07,1.06-.2.3-.14.55-.32.77-.55.21-.23.38-.5.51-.8.13-.3.21-.61.26-.94l.76-5.35h2.45M41.75,9.52h-3.46l-.06.43-.76,5.35c-.04.29-.11.56-.22.81-.11.25-.25.47-.42.66-.17.18-.36.32-.6.43-.23.11-.52.16-.85.16-.3,0-.52-.06-.63-.16-.14-.13-.24-.29-.29-.49-.06-.24-.08-.5-.07-.79.02-.32.05-.61.09-.86l.7-4.97.08-.57h-3.46l-.06.43-.88,6.19c-.07.55-.08,1.08-.01,1.59.07.53.24,1.02.51,1.44.28.44.68.79,1.19,1.04.5.24,1.12.37,1.84.37.91,0,1.69-.21,2.3-.63.1-.07.2-.14.29-.21v.03s-.08.56-.08.56h3.33l.06-.43,1.37-9.8.08-.57h0Z"/>
        </g>
        <g>
          <path class="cls-2" d="M45.49,20.32c-.79,0-1.51-.11-2.15-.34-.66-.23-1.22-.66-1.67-1.27l-.14-.19,2.24-1.85.16.21c.26.33.54.61.83.82.28.19.65.29,1.11.29.16,0,.33-.02.51-.06.17-.04.34-.1.49-.18.15-.08.28-.18.38-.3.09-.11.15-.23.17-.37.05-.32-.06-.44-.17-.51-.21-.15-.5-.27-.85-.36-.38-.1-.78-.19-1.22-.28-.46-.09-.9-.24-1.28-.45-.41-.22-.73-.53-.96-.92-.24-.4-.31-.95-.21-1.64.09-.58.28-1.09.58-1.52.29-.43.67-.78,1.1-1.06.43-.27.91-.48,1.42-.6.51-.13,1.02-.19,1.53-.19.68,0,1.34.12,1.98.35.66.24,1.17.67,1.51,1.26l.11.19-2.23,1.79-.14-.25c-.34-.59-.85-.87-1.56-.87-.15,0-.3.02-.45.05-.15.04-.3.09-.43.16-.12.06-.22.15-.3.26-.08.1-.13.22-.15.36-.03.24.07.34.17.4.22.12.51.23.87.32.38.1.79.19,1.23.29.46.11.89.27,1.28.5.4.23.71.56.95.96.24.42.31.98.2,1.67-.09.62-.3,1.16-.63,1.59-.33.43-.73.78-1.19,1.04-.46.26-.96.44-1.5.56-.53.11-1.06.17-1.58.17Z"/>
          <path class="cls-3" d="M47.37,9.77c.65,0,1.28.11,1.89.34.61.22,1.07.61,1.38,1.15l-1.84,1.47c-.38-.67-.97-1-1.78-1-.16,0-.33.02-.51.06-.18.04-.34.1-.49.18-.15.08-.28.19-.38.33-.1.14-.17.29-.19.47-.04.3.06.52.3.65.24.14.55.25.93.35.38.1.79.19,1.24.3.44.1.84.26,1.2.47.36.21.65.5.86.87.21.37.27.87.17,1.51-.08.59-.28,1.08-.58,1.48-.31.4-.68.72-1.11.97-.44.25-.91.42-1.43.53-.52.11-1.03.16-1.53.16-.76,0-1.45-.11-2.06-.33-.61-.22-1.13-.61-1.55-1.18l1.86-1.53c.27.35.57.64.89.87.32.22.74.34,1.26.34.18,0,.36-.02.56-.06.2-.04.38-.11.56-.2.18-.09.33-.21.45-.36.12-.14.2-.31.22-.5.05-.34-.04-.59-.28-.76-.24-.16-.55-.3-.93-.4-.38-.1-.79-.2-1.24-.29-.44-.09-.85-.23-1.22-.43-.37-.2-.66-.47-.87-.83-.21-.35-.27-.84-.17-1.47.08-.54.26-1.02.54-1.42.28-.4.62-.73,1.03-.99s.86-.45,1.35-.57c.49-.12.98-.18,1.47-.18M47.37,9.27c-.53,0-1.06.07-1.59.2-.54.13-1.04.35-1.49.63-.46.29-.86.67-1.17,1.13-.32.46-.53,1.01-.63,1.63-.11.74-.03,1.35.24,1.8.26.43.61.77,1.06,1.01.41.22.86.38,1.35.48.44.09.84.18,1.2.28.32.09.59.2.78.33.04.03.1.07.06.26-.02.1-.05.18-.11.25-.08.1-.19.18-.31.24-.13.07-.28.12-.43.16-.16.03-.32.05-.46.05-.41,0-.74-.08-.97-.25-.28-.19-.54-.45-.78-.76l-.32-.41-.4.33-1.86,1.53-.37.3.28.38c.48.65,1.08,1.11,1.79,1.36.67.24,1.42.36,2.23.36.54,0,1.09-.06,1.63-.17.56-.12,1.09-.32,1.57-.58.49-.28.92-.65,1.27-1.1.36-.47.59-1.05.68-1.71.11-.75.03-1.36-.24-1.83-.25-.44-.6-.8-1.04-1.05-.4-.24-.86-.41-1.35-.53-.44-.1-.85-.2-1.23-.29-.34-.08-.6-.18-.8-.3-.04-.03-.06-.04-.05-.15.01-.09.05-.17.1-.24.06-.08.13-.14.22-.19.11-.06.23-.11.36-.14.14-.03.27-.05.4-.05.62,0,1.05.24,1.34.75l.29.51.46-.36,1.84-1.47.33-.27-.21-.37c-.37-.65-.92-1.11-1.64-1.37-.66-.24-1.35-.37-2.06-.37h0Z"/>
        </g>
        <g>
          <path class="cls-2" d="M56.45,20.32c-.76,0-1.48-.13-2.12-.39-.65-.26-1.21-.63-1.64-1.1-.44-.48-.76-1.05-.96-1.72-.2-.67-.24-1.41-.13-2.22.11-.8.36-1.55.75-2.2.38-.66.86-1.23,1.42-1.69.56-.47,1.21-.83,1.92-1.08.71-.25,1.46-.38,2.22-.38,1.45,0,2.57.5,3.32,1.48.75.97,1,2.36.76,4.14l-.14.89h-7.44c.01.23.06.45.13.64.1.25.25.47.42.64.18.17.4.31.65.41.25.1.54.15.85.15.57,0,1.07-.12,1.48-.35.43-.24.82-.54,1.15-.9l.16-.17,1.96,1.65-.18.19c-.69.73-1.43,1.26-2.21,1.57-.78.31-1.58.47-2.38.47ZM59.23,13.69c.03-.54-.09-.97-.39-1.29-.33-.36-.85-.54-1.55-.54s-1.23.19-1.67.57c-.37.32-.66.74-.84,1.26h4.46Z"/>
          <path class="cls-3" d="M57.9,9.77c1.37,0,2.42.46,3.12,1.38.71.92.95,2.24.71,3.95l-.1.67h-7.47c-.01.37.04.69.15.98.12.29.28.53.48.72.2.2.45.35.74.46.29.11.6.16.94.16.61,0,1.15-.13,1.6-.38.46-.25.86-.57,1.22-.95l1.57,1.33c-.67.71-1.38,1.21-2.12,1.51-.75.3-1.51.45-2.29.45-.74,0-1.41-.12-2.03-.37-.62-.25-1.14-.59-1.55-1.04-.42-.45-.72-.99-.91-1.62-.19-.63-.23-1.34-.12-2.11.11-.78.35-1.48.71-2.11.37-.63.82-1.17,1.37-1.62.54-.45,1.16-.8,1.85-1.04.69-.25,1.4-.37,2.13-.37M54.43,13.94h5.02c.1-.72-.05-1.29-.43-1.71-.38-.42-.96-.62-1.74-.62-.74,0-1.35.21-1.84.63-.49.42-.83.99-1.02,1.7M57.9,9.27c-.79,0-1.56.13-2.3.4-.74.26-1.41.64-2,1.13-.59.48-1.09,1.08-1.48,1.76-.4.69-.66,1.46-.78,2.3-.12.84-.07,1.63.14,2.33.21.7.56,1.32,1.02,1.82.46.5,1.05.9,1.74,1.17.68.27,1.42.4,2.22.4.84,0,1.67-.16,2.47-.48.81-.33,1.59-.87,2.3-1.63l.36-.38-.4-.34-1.57-1.33-.14-.12h2.6l.06-.43.1-.67c.25-1.85-.02-3.31-.81-4.33-.8-1.04-1.99-1.57-3.52-1.57h0ZM55.15,13.44c.16-.32.37-.59.63-.82.4-.34.89-.51,1.51-.51s1.08.15,1.37.46c.2.22.31.51.32.87h-3.83ZM54.7,16.28h4.38l-.15.16c-.32.34-.68.63-1.09.85-.38.21-.84.32-1.36.32-.28,0-.53-.04-.76-.13-.22-.09-.41-.2-.57-.35-.16-.15-.27-.33-.36-.55-.04-.09-.07-.19-.08-.29h0Z"/>
        </g>
        <g>
          <path class="cls-2" d="M85.35,20.32c-.76,0-1.48-.13-2.12-.39-.65-.26-1.21-.63-1.64-1.1-.44-.48-.76-1.05-.96-1.72-.2-.67-.24-1.41-.13-2.22.11-.8.36-1.55.75-2.2.38-.66.86-1.23,1.42-1.69.56-.47,1.21-.83,1.92-1.08.71-.25,1.46-.38,2.22-.38.65,0,1.3.13,1.93.38.64.25,1.18.66,1.6,1.21l.14.19-2.29,2.02-.16-.2c-.22-.27-.47-.5-.74-.66-.25-.15-.52-.23-.8-.23-.41,0-.79.08-1.14.22-.35.15-.66.35-.92.61-.27.25-.49.55-.66.87s-.28.67-.33,1.02c-.05.35-.04.69.04,1.01.07.32.21.6.39.84.19.24.43.44.73.58.3.15.66.22,1.06.22.34,0,.68-.07.99-.21s.6-.35.85-.62l.2-.22,1.72,2.18-.18.16c-.3.26-.63.48-.99.67-.35.18-.71.33-1.06.45-.35.11-.69.19-1.01.24-.32.05-.6.07-.82.07Z"/>
          <path class="cls-3" d="M86.8,9.77c.63,0,1.24.12,1.84.36.6.24,1.1.62,1.49,1.13l-1.92,1.69c-.24-.3-.51-.54-.81-.71-.29-.18-.6-.27-.93-.27-.45,0-.86.08-1.24.24-.37.16-.7.38-.99.65s-.52.59-.7.94c-.18.35-.3.72-.36,1.1-.05.38-.04.75.04,1.1.08.35.23.67.44.94.21.27.48.49.82.65.33.16.73.25,1.17.25.38,0,.75-.08,1.09-.23.35-.16.66-.38.93-.68l1.39,1.76c-.29.24-.6.46-.94.63-.34.18-.68.32-1.02.43-.34.11-.66.19-.97.23-.31.05-.57.07-.79.07-.73,0-1.41-.12-2.03-.37-.62-.25-1.14-.59-1.55-1.04-.42-.45-.72-.99-.91-1.62-.19-.63-.23-1.34-.12-2.11.11-.78.35-1.48.71-2.11.37-.63.82-1.17,1.37-1.62.54-.45,1.16-.8,1.85-1.04.69-.25,1.4-.37,2.13-.37M86.8,9.27c-.79,0-1.56.13-2.3.4-.74.26-1.41.64-2,1.13-.59.48-1.09,1.08-1.48,1.76-.4.69-.66,1.46-.78,2.3-.12.84-.07,1.63.14,2.33.21.7.55,1.31,1.02,1.82.46.5,1.05.9,1.74,1.17.68.27,1.42.4,2.22.4.24,0,.53-.03.86-.08.33-.05.68-.14,1.05-.25.37-.12.74-.27,1.1-.46.37-.19.72-.43,1.03-.7l.36-.31-.3-.38-1.39-1.76-.37-.46-.4.44c-.23.25-.48.44-.76.56-.28.13-.58.19-.89.19-.37,0-.69-.07-.95-.19-.27-.13-.48-.3-.64-.51-.17-.22-.28-.46-.35-.75-.07-.29-.08-.6-.03-.92.05-.32.15-.64.31-.94.16-.3.36-.57.61-.81.24-.23.53-.42.85-.56.31-.13.66-.2,1.04-.2.24,0,.46.06.67.19.24.15.47.35.68.6l.33.4.39-.34,1.92-1.69.35-.31-.28-.37c-.45-.59-1.02-1.02-1.7-1.29-.66-.26-1.34-.39-2.02-.39h0Z"/>
        </g>
        <g>
          <path class="cls-2" d="M90.1,20.07l1.44-10.3h2.96l-.14.96c.27-.28.57-.51.9-.7.58-.33,1.24-.5,1.93-.5.17,0,.33.02.48.05.14.03.29.06.45.11l.21.06-.42,2.87-.27-.08c-.18-.05-.36-.09-.55-.13-.18-.03-.35-.05-.53-.05-.53,0-.97.1-1.31.29-.35.2-.63.42-.84.67-.21.25-.35.5-.44.74-.11.31-.14.48-.15.56l-.77,5.47h-2.96Z"/>
          <path class="cls-3" d="M97.19,9.77c.15,0,.29.01.43.04.14.03.28.06.43.1l-.35,2.37c-.19-.05-.38-.1-.57-.13-.19-.03-.38-.05-.57-.05-.57,0-1.05.11-1.43.32-.38.21-.68.45-.91.72-.22.27-.38.54-.48.82-.1.27-.15.48-.16.61l-.73,5.25h-2.45l1.37-9.8h2.45l-.22,1.55h.04c.35-.57.81-1.01,1.36-1.33.55-.31,1.15-.47,1.81-.47M97.19,9.27c-.74,0-1.43.18-2.05.54-.15.09-.29.18-.43.28h0s.08-.57.08-.57h-3.46l-.06.43-1.37,9.8-.08.57h3.46l.06-.43.73-5.25c0-.06.03-.2.14-.52.07-.21.21-.44.39-.66.18-.22.44-.43.77-.61.3-.17.7-.25,1.19-.25.16,0,.32.01.48.04.17.03.35.07.52.12l.55.16.08-.56.35-2.37.06-.44-.43-.12c-.16-.04-.31-.08-.46-.11-.17-.03-.35-.05-.53-.05h0Z"/>
        </g>
        <g>
          <path class="cls-2" d="M98.09,20.07l1.44-10.3h2.96l-1.44,10.3h-2.96ZM101.21,8.41c-.52,0-.94-.18-1.24-.53-.3-.35-.42-.76-.35-1.23.06-.45.29-.85.67-1.19.38-.33.83-.5,1.34-.5s.94.17,1.26.49c.33.34.46.76.38,1.27-.08.48-.31.89-.7,1.21-.38.32-.84.48-1.34.48Z"/>
          <path class="cls-3" d="M101.62,5.22c.45,0,.81.14,1.08.42.27.28.37.63.31,1.05s-.27.77-.61,1.05c-.34.28-.74.42-1.18.42s-.8-.15-1.05-.44c-.25-.29-.35-.64-.3-1.03.05-.39.25-.74.58-1.03.33-.29.72-.44,1.17-.44M102.19,10.02l-1.37,9.8h-2.45l1.37-9.8h2.45M101.62,4.72c-.57,0-1.08.19-1.5.56-.42.37-.68.82-.75,1.34-.07.53.07,1.03.41,1.43.35.41.83.61,1.43.61.57,0,1.07-.18,1.5-.53.44-.36.7-.81.79-1.36.09-.58-.06-1.09-.44-1.48-.37-.38-.85-.57-1.44-.57h0ZM102.77,9.52h-3.46l-.06.43-1.37,9.8-.08.57h3.46l.06-.43,1.37-9.8.08-.57h0Z"/>
        </g>
        <g>
          <path class="cls-2" d="M109.34,20.32c-.73,0-1.4-.15-1.99-.43-.41-.2-.75-.48-1.02-.84l-.14,1.03h-2.83l2.23-15.94h2.96l-.93,6.53s.08-.06.12-.1c.23-.18.5-.35.81-.51.31-.16.66-.29,1.04-.39.39-.1.83-.15,1.31-.15.73,0,1.39.14,1.97.42.58.28,1.06.67,1.44,1.17.38.49.64,1.07.78,1.73.14.65.16,1.36.07,2.11-.11.75-.33,1.46-.65,2.1-.32.65-.73,1.22-1.22,1.7-.5.48-1.08.87-1.75,1.14-.67.28-1.4.42-2.18.42ZM109.97,12.23c-.41,0-.79.08-1.14.22-.35.15-.66.35-.92.61-.27.25-.49.55-.66.87-.17.33-.28.67-.33,1.02-.05.35-.04.69.04,1.01.07.32.21.6.39.84.19.24.43.44.73.58.3.15.66.22,1.06.22s.8-.08,1.15-.23c.35-.15.66-.35.93-.6.26-.25.48-.54.64-.87.16-.33.27-.67.32-1.03.05-.35.04-.69-.04-1.01-.07-.32-.21-.6-.39-.84-.19-.24-.43-.43-.73-.58-.3-.15-.66-.22-1.06-.22Z"/>
          <path class="cls-3" d="M108.26,4.38l-.98,6.88h.06c.15-.16.33-.33.55-.5.22-.17.47-.33.77-.48.29-.15.62-.27.99-.37.37-.1.78-.14,1.25-.14.69,0,1.31.13,1.86.4.54.27.99.63,1.35,1.09.35.46.6,1.01.73,1.63.14.63.16,1.3.06,2.02-.11.72-.32,1.4-.62,2.02-.31.63-.7,1.17-1.17,1.63-.48.46-1.03.83-1.67,1.09-.64.27-1.33.4-2.08.4-.69,0-1.32-.14-1.88-.41-.56-.27-.97-.71-1.25-1.31h-.04l-.2,1.47h-2.33l2.16-15.44h2.45M109.16,17.86c.45,0,.86-.08,1.25-.25.38-.16.71-.38,1-.65.29-.27.52-.59.69-.94.18-.35.29-.72.35-1.1.05-.38.04-.75-.04-1.1-.08-.35-.23-.67-.44-.94-.21-.27-.48-.49-.82-.65-.33-.16-.73-.24-1.17-.24s-.86.08-1.24.24c-.37.16-.7.38-.99.65s-.52.59-.7.94c-.18.35-.3.72-.36,1.1-.05.38-.04.75.04,1.1.08.35.23.67.44.94.21.27.48.49.82.65.33.16.72.25,1.17.25M108.83,3.88h-3.46l-.06.43-2.16,15.44-.08.57h3.34l.06-.43.04-.28c.22.2.46.37.74.5.62.3,1.33.46,2.1.46.81,0,1.58-.15,2.27-.44.7-.29,1.31-.69,1.83-1.2.52-.5.94-1.1,1.27-1.77.33-.67.55-1.4.67-2.17.1-.78.08-1.52-.07-2.2-.15-.7-.43-1.31-.83-1.83-.4-.52-.91-.94-1.53-1.24-.61-.3-1.31-.45-2.08-.45-.5,0-.96.05-1.37.16-.4.1-.77.24-1.09.41-.17.09-.33.18-.48.27l.81-5.66.08-.57h0ZM109.16,17.36c-.37,0-.69-.07-.95-.19-.27-.13-.48-.3-.64-.51-.17-.22-.28-.46-.35-.75-.07-.29-.08-.6-.03-.92.05-.32.15-.64.31-.94.16-.3.36-.57.61-.81.24-.23.53-.42.85-.56.31-.13.66-.2,1.04-.2s.69.07.95.19c.27.13.48.3.64.51.17.22.28.46.35.75.07.29.08.6.03.92-.05.33-.15.65-.3.95-.15.3-.35.57-.59.8-.24.23-.53.42-.85.56-.32.14-.67.2-1.05.2h0Z"/>
        </g>
        <g>
          <path class="cls-2" d="M121.31,20.32c-.76,0-1.48-.13-2.12-.39-.65-.26-1.2-.63-1.64-1.1-.44-.48-.76-1.06-.96-1.72-.2-.66-.25-1.41-.13-2.22.11-.8.37-1.55.75-2.2.38-.66.86-1.23,1.42-1.69.56-.47,1.21-.83,1.92-1.08.71-.25,1.46-.38,2.22-.38,1.45,0,2.57.5,3.32,1.48.75.97,1,2.36.76,4.14l-.13.89h-7.44c.01.23.06.45.13.64.1.25.24.47.42.64.18.17.4.31.65.41.25.1.54.15.85.15.57,0,1.07-.12,1.48-.35.43-.24.82-.54,1.15-.9l.16-.17,1.96,1.65-.18.19c-.69.73-1.43,1.26-2.21,1.57-.78.31-1.58.47-2.38.47ZM124.08,13.69c.04-.54-.09-.97-.39-1.29-.33-.36-.85-.54-1.55-.54s-1.23.19-1.67.57c-.38.32-.66.74-.84,1.26h4.46Z"/>
          <path class="cls-3" d="M122.76,9.77c1.38,0,2.42.46,3.12,1.38.71.92.95,2.24.71,3.95l-.1.67h-7.47c-.01.37.04.69.15.98.12.29.28.53.48.72.2.2.45.35.74.46.29.11.6.16.94.16.61,0,1.15-.13,1.6-.38.46-.25.86-.57,1.22-.95l1.57,1.33c-.67.71-1.38,1.21-2.12,1.51-.75.3-1.51.45-2.29.45-.73,0-1.41-.12-2.03-.37-.62-.25-1.14-.59-1.55-1.04-.42-.45-.72-.99-.91-1.62-.19-.63-.23-1.34-.12-2.11.11-.78.35-1.48.71-2.11.37-.63.82-1.17,1.37-1.62.54-.45,1.16-.8,1.85-1.04.69-.25,1.4-.37,2.13-.37M119.29,13.94h5.02c.1-.72-.05-1.29-.43-1.71-.38-.42-.96-.62-1.74-.62-.73,0-1.35.21-1.84.63-.49.42-.83.99-1.02,1.7M122.76,9.27c-.79,0-1.56.13-2.3.4-.74.26-1.41.64-2,1.13-.59.48-1.09,1.08-1.48,1.76-.4.69-.66,1.46-.78,2.29-.12.84-.07,1.63.14,2.33.21.7.55,1.32,1.02,1.82.46.5,1.05.9,1.74,1.17.68.27,1.42.4,2.22.4.84,0,1.67-.16,2.47-.48.81-.33,1.59-.87,2.3-1.63l.36-.38-.4-.34-1.57-1.33-.14-.12h2.6l.06-.43.1-.67c.25-1.85-.02-3.31-.81-4.33-.8-1.04-1.99-1.57-3.52-1.57h0ZM120,13.44c.16-.32.37-.59.63-.82.4-.34.89-.51,1.51-.51s1.08.15,1.37.46c.2.22.31.51.32.87h-3.83ZM119.55,16.28h4.38l-.15.16c-.32.34-.68.63-1.09.85-.38.21-.84.32-1.36.32-.28,0-.53-.04-.76-.13-.22-.09-.41-.2-.57-.35-.16-.15-.27-.33-.36-.55-.04-.09-.07-.19-.08-.29h0Z"/>
        </g>
      </g>
      <g>
        <path class="cls-1" d="M22.71,21.23c-.6,0-1.14-.12-1.62-.36l-.16-.1c-.86-.68-1.24-1.57-1.09-2.52.24-1.6,1.9-2.93,3.43-3.53.68-.27,1.34-.4,1.96-.4.14,0,.29,0,.42.02.32-2.36.83-6.63,1.08-8.8-.7,0-1.47,0-2.28,0-.81,0-1.67-.01-2.5-.01-.77,0-1.52,0-2.18.02l-1.37,11.15c0,1.36-1.06,2.86-2.67,3.77-.88.5-1.82.76-2.71.76-.69,0-1.32-.16-1.85-.47l-.17-.12c-1.21-1.17-1.19-2.8.02-4.18,1.11-1.27,2.9-2.12,4.47-2.12.15,0,.31,0,.45.03.08-.6.15-1.23.23-1.89.1-.88.19-1.73.32-2.61.13-1.11.27-2.24.39-3.17,0,0,.14-1.14.14-1.14,0,0-1.27,0-1.65,0-.53,0-3.15-.02-3.75-.02-.55,0-1.08,0-1.57.02l-1.37,11.16c-.03,1.42-1.07,2.88-2.7,3.77-.71.46-1.7.74-2.64.74s-1.68-.26-2.23-.74c-.32-.28-1.27-1.35-.34-3.2.63-1.24,2.19-2.39,3.79-2.79.41-.1.81-.15,1.19-.15.16,0,.32,0,.47.03.4-3.22.89-7.25,1.25-10.21.03-.19.06-.43.08-.68.07-.6.11-.94.16-1.15l.13-.54c.04-.17.19-.29.36-.29,0,0,1.67,0,2.62,0h12.31c2.41-.01,4.5,0,5.62,0h.57c.18,0,.33.13.36.31l.14.68s0,.08,0,.13l-.02.12c-.08.55-.35,2.81-.66,5.42l-.03.28c-.4,3.32-.86,7.11-1.06,8.65-.17,1.31-1.23,2.64-2.75,3.44-.86.46-1.76.7-2.61.7Z"/>
        <path class="cls-3" d="M23.15,1.86c2.4,0,4.49,0,5.62.02h.57s.14.69.14.69l-.02.12c-.08.57-.37,2.97-.7,5.7-.4,3.32-.86,7.11-1.06,8.65-.16,1.2-1.14,2.41-2.55,3.16-.82.44-1.66.66-2.43.66-.53,0-1.02-.11-1.45-.32l-.12-.08c-.72-.57-1.05-1.34-.92-2.15.22-1.45,1.76-2.67,3.2-3.23.64-.25,1.26-.38,1.82-.38.26,0,.51.03.74.08.34-2.45.95-7.59,1.18-9.61-.09,0-.19,0-.29,0-.73,0-1.55,0-2.41,0-.81,0-1.67-.01-2.5-.01-.91,0-1.78,0-2.52.03l-1.41,11.47c0,1.27-.96,2.63-2.49,3.49-.84.47-1.72.71-2.52.71-.61,0-1.18-.14-1.65-.42l-.13-.1c-1.04-1-1.01-2.4.07-3.64,1.01-1.16,2.71-1.99,4.19-1.99.27,0,.53.03.77.08.11-.74.2-1.53.29-2.35.09-.81.19-1.66.31-2.53.14-1.16.28-2.32.4-3.27.07-.54.13-1.07.18-1.47h-1.02c-.32,0-.68,0-1.06,0-.56,0-1.17,0-1.79,0-.66,0-1.32-.01-1.96-.01-.68,0-1.33,0-1.9.02l-1.41,11.48c-.03,1.32-.97,2.65-2.51,3.49-.67.43-1.58.7-2.46.7-.75,0-1.47-.2-1.98-.65-.34-.31-1.05-1.19-.26-2.75.58-1.15,2.04-2.22,3.55-2.59.38-.09.75-.14,1.1-.14.28,0,.55.03.8.09.4-3.28.92-7.52,1.3-10.6.03-.2.06-.48.09-.76.06-.52.1-.84.14-1.02l.13-.54h.56c.39,0,1.09,0,2.02,0,1.37,0,3.21,0,5.21,0,2.29,0,4.86,0,7.14,0M23.15,1.11c-2.19,0-4.64,0-6.85,0h-.29s-.93,0-.93,0h-4.28c-.92,0-1.63,0-2.02,0h-.56s0,0,0,0c-.34,0-.65.24-.73.57l-.13.54c-.06.23-.09.56-.16,1.12v.06c-.03.25-.06.49-.09.66-.35,2.88-.82,6.72-1.21,9.88-.05,0-.1,0-.14,0-.41,0-.84.06-1.28.16-1.73.43-3.35,1.63-4.04,2.98-1.05,2.09.06,3.32.43,3.65.61.55,1.47.84,2.48.84s2.06-.3,2.85-.8c1.75-.97,2.82-2.49,2.87-4.08l1.33-10.8c.39,0,.81,0,1.23,0,.62,0,1.27,0,1.92,0h.14c.58,0,1.16,0,1.69,0,.38,0,.74,0,1.07,0h.16c-.02.17-.04.35-.07.53v.1c-.14.99-.28,2.13-.42,3.28-.12.88-.22,1.76-.31,2.54-.06.55-.12,1.09-.19,1.6-.04,0-.09,0-.13,0-1.67,0-3.58.9-4.75,2.25-1.35,1.55-1.36,3.38-.03,4.67.02.02.04.04.07.06l.13.1s.05.03.07.05c.58.34,1.28.53,2.04.53.95,0,1.95-.28,2.89-.81,1.74-.98,2.84-2.54,2.87-4.09l1.32-10.79c.53,0,1.14-.01,1.86-.01.83,0,1.68,0,2.49.01.65,0,1.28,0,1.86,0-.25,2.14-.68,5.75-.98,8.03-.03,0-.06,0-.1,0-.66,0-1.37.14-2.09.43-1.52.59-3.39,1.95-3.67,3.82-.16,1.07.27,2.11,1.2,2.85.02.02.04.03.06.04l.12.08s.05.03.07.04c.53.26,1.13.4,1.79.4.9,0,1.87-.26,2.78-.75,1.63-.87,2.76-2.29,2.94-3.73.21-1.54.66-5.3,1.06-8.63l.04-.36c.31-2.58.58-4.82.66-5.35l.02-.12c.01-.08,0-.17,0-.25l-.14-.68c-.07-.35-.37-.6-.73-.6h-.57c-1.12-.02-3.22-.02-5.62-.02h0Z"/>
      </g>
    </g>
  </g>
</svg>